<svg width="820" height="990" viewBox="0 0 820 990" fill="none" xmlns="http://www.w3.org/2000/svg">
<g clip-path="url(#clip0)">
<path d="M484.382 231.7H274.269V486.993H484.382V231.7Z" fill="#2F2E41"/>
<path d="M601.934 989.305H295.893V867.79C295.944 839.257 300.684 810.957 309.898 784.183C310.364 782.816 310.83 781.471 311.317 780.125C324.876 742.391 342.508 720.236 342.508 720.236C466.141 794.013 541.131 726.746 541.131 726.746L554.548 784.682L555.521 788.892L591.212 942.999L592.185 947.23L601.934 989.305Z" fill="#242D2F"/>
<path d="M555.521 788.892C509.473 800.892 468.674 805.015 434.28 805.015C412.87 805.067 391.487 803.377 370.316 799.959C349.773 796.66 329.552 791.38 309.898 784.183C310.364 782.816 310.83 781.471 311.317 780.126C330.784 787.252 350.817 792.467 371.167 795.706C412.979 802.563 476.052 805.123 554.548 784.682L555.521 788.892Z" fill="#E5E5E5"/>
<path d="M592.185 947.23C530.957 967.736 477.531 974.268 434.28 974.268C412.87 974.32 391.487 972.63 370.316 969.212C335.496 963.461 310.101 954.066 295.893 947.795V943.086C309.492 949.248 335.212 959.056 371.167 964.959C419.302 972.857 495.63 975.049 591.212 942.999L592.185 947.23Z" fill="#F2F2F2"/>
<path d="M600.92 441.402L557.771 521.168V521.19L556.332 523.859L457.02 619.335L335.415 530.369L282.719 458.762C282.719 458.762 290.826 430.553 319.201 426.213C326.679 425.063 333.023 423.935 338.799 422.633C342.731 421.743 346.4 420.788 349.987 419.703C361.114 416.34 371.39 411.761 386.084 404.514C412.432 391.495 377.977 350.266 377.977 350.266L448.913 302.528C448.913 302.528 480.409 412.109 535.639 411.132C536.449 411.132 537.26 411.089 538.091 411.024C541.131 410.785 544.029 410.677 546.786 410.655C595.469 410.308 600.92 441.402 600.92 441.402Z" fill="#FFB8B8"/>
<path d="M353.656 502.16L338.799 422.633C342.731 421.743 346.4 420.788 349.987 419.703L353.656 502.16Z" fill="#E34D4F"/>
<path d="M546.786 410.655L533.024 490.225L535.639 411.132C536.449 411.132 537.26 411.089 538.091 411.024C541.131 410.785 544.029 410.676 546.786 410.655Z" fill="#3F3D56"/>
<path d="M382.03 358.946C424.566 358.946 459.047 322.029 459.047 276.489C459.047 230.95 424.566 194.033 382.03 194.033C339.495 194.033 305.013 230.95 305.013 276.489C305.013 322.029 339.495 358.946 382.03 358.946Z" fill="#FFB8B8"/>
<path d="M294.88 445.742L282.719 458.762C282.719 458.762 264.478 634.525 282.719 719.151L367.843 953.501C367.843 953.501 390.137 1035.96 438.78 1018.6C487.422 1001.24 398.244 905.763 398.244 905.763L335.415 721.321V491.31L294.88 445.742Z" fill="#FFB8B8"/>
<path d="M570.519 421.873L600.92 441.403C600.92 441.403 627.268 539.049 604.974 673.583L570.519 929.633C570.519 929.633 550.251 1027.28 507.69 1003.41C465.128 979.541 536.064 899.254 536.064 899.254L554.305 699.622L558.359 491.31L570.519 421.873Z" fill="#FFB8B8"/>
<path d="M446.887 571.597L351.629 486.971L331.361 539.048C331.361 539.048 311.094 756.04 327.308 751.7C343.522 747.36 345.549 727.831 359.736 743.02C373.923 758.209 463.101 779.909 475.261 766.889C487.422 753.87 546.198 734.341 546.198 734.341C546.198 734.341 570.519 714.811 562.412 688.772C554.305 662.733 562.412 658.394 564.439 647.544C566.465 636.695 564.439 521.689 564.439 521.689L536.064 469.611L446.887 571.597Z" fill="#E34D4F"/>
<path d="M405.459 416.181C415.026 422.226 428.03 428.166 442.333 428.287V461.687C439.876 462.066 437.621 463.351 435.96 465.319C434.199 467.404 433.227 470.109 433.226 472.909C433.225 475.709 434.195 478.415 435.955 480.501C437.715 482.589 440.143 483.91 442.772 484.197C445.401 484.484 448.032 483.715 450.154 482.047C452.276 480.38 453.737 477.936 454.264 475.192C454.791 472.449 454.349 469.592 453.02 467.174C451.751 464.865 449.756 463.107 447.387 462.216V428.063C448.083 428.006 448.788 427.941 449.498 427.847C467.696 425.427 483.411 413.046 496.237 391.214L496.475 390.808L496.085 390.546L492.653 388.236L492.212 387.939L491.943 388.397C479.891 408.912 465.395 420.343 448.889 422.546C434.201 424.506 420.196 418.821 409.793 412.567C399.398 406.317 392.666 399.541 392.549 399.421L392.174 399.04L391.819 399.439L389.02 402.578L388.709 402.927L389.036 403.26C389.584 403.821 395.788 410.069 405.459 416.181Z" fill="#F5E0C1" stroke="#F2F2F2"/>
<path d="M385.819 134.36C385.819 134.36 307.886 144.792 290.438 195.128C272.991 245.464 242.457 271.891 242.457 271.891C242.457 271.891 194.36 307.685 218.409 371.584C218.409 371.584 143.588 425.416 193.023 473.235C193.023 473.235 190.115 521.055 219.194 553.773C219.194 553.773 242.458 566.357 233.734 573.908C225.01 581.458 291.893 576.424 286.077 508.471C280.261 440.517 319.518 392.649 319.518 392.649C319.518 392.649 281.715 304.545 299.162 274.343C309.756 256.006 314.305 242.332 323.099 234.418C327.996 230.116 332.538 225.37 336.674 220.234C342.089 213.345 353.051 203.963 370.407 208.97C377.813 211.001 384.671 214.864 390.429 220.248C407.814 236.765 426.627 251.473 446.614 264.174C456.014 270.145 465.857 276.893 474.996 284.084C491.92 297.4 477.939 325.62 461.017 349.246C435.981 384.201 435.486 433.307 461.673 467.282C462.442 468.28 463.227 469.26 464.027 470.22C489.632 500.92 456.648 527.681 454.737 531.122C450.375 538.975 432.956 588.569 504.913 588.789C504.913 588.789 521.62 551.256 544.883 528.605C568.147 505.954 550.699 440.517 550.699 440.517C550.699 440.517 585.594 417.865 547.791 362.496C547.791 362.496 567.787 295.103 535.799 262.385C535.799 262.385 484.689 116.742 385.819 134.36Z" fill="#2F2E41"/>
<path d="M466.141 294.933C471.738 294.933 476.275 287.647 476.275 278.659C476.275 269.671 471.738 262.385 466.141 262.385C460.544 262.385 456.007 269.671 456.007 278.659C456.007 287.647 460.544 294.933 466.141 294.933Z" fill="#FFB8B8"/>
<g filter="url(#filter0_d)">
<path d="M470.5 361.001C456.568 361.001 445.234 344.621 445.234 324.488C445.234 304.354 456.568 287.974 470.5 287.974C470.834 287.974 471.154 288.123 471.39 288.389C471.626 288.654 471.758 289.015 471.758 289.39C471.758 289.765 471.626 290.125 471.39 290.391C471.154 290.656 470.834 290.806 470.5 290.806C457.956 290.806 447.751 305.916 447.751 324.488C447.751 343.061 457.956 358.17 470.5 358.17C483.043 358.17 493.249 343.061 493.249 324.488C493.249 307.93 487.97 295.818 479.127 292.088C478.815 291.955 478.563 291.689 478.425 291.347C478.288 291.006 478.276 290.617 478.393 290.266C478.511 289.915 478.747 289.63 479.05 289.475C479.354 289.319 479.699 289.305 480.012 289.436C489.877 293.598 495.766 306.702 495.766 324.488C495.766 344.621 484.432 361.001 470.5 361.001Z" fill="#F5E0C1"/>
<path d="M478.735 293.008L478.738 293.009C482.855 294.746 486.231 298.47 488.587 303.877C490.943 309.283 492.249 316.306 492.249 324.488C492.249 333.601 489.743 341.821 485.749 347.734C481.751 353.654 476.338 357.17 470.5 357.17C464.661 357.17 459.248 353.654 455.25 347.734C451.257 341.821 448.751 333.601 448.751 324.488C448.751 315.375 451.257 307.155 455.25 301.242C459.248 295.322 464.661 291.806 470.5 291.806C471.139 291.806 471.725 291.519 472.137 291.055C472.546 290.596 472.758 289.995 472.758 289.39C472.758 288.785 472.546 288.184 472.137 287.724C471.725 287.261 471.139 286.974 470.5 286.974C463.112 286.974 456.521 291.318 451.82 298.112C447.116 304.91 444.234 314.243 444.234 324.488C444.234 334.733 447.116 344.065 451.82 350.864C456.521 357.658 463.112 362.001 470.5 362.001C477.888 362.001 484.479 357.658 489.18 350.864C493.884 344.065 496.766 334.733 496.766 324.488C496.766 306.592 490.846 292.922 480.401 288.515L480.398 288.514C479.812 288.268 479.158 288.296 478.594 288.585C478.037 288.87 477.637 289.373 477.445 289.949C477.253 290.524 477.271 291.158 477.497 291.721C477.725 292.285 478.157 292.762 478.735 293.008Z" stroke="#E5E5E5" stroke-width="2"/>
</g>
<path d="M475.733 283.922C475.105 287.492 473.368 290.731 470.805 293.111L475.733 283.922Z" fill="#FFB8B8"/>
<path d="M400.087 904.941L358.13 927.059L359.151 929.28L401.108 907.162L400.087 904.941Z" fill="#F2F2F2"/>
<path d="M379.797 925.839C384.902 925.839 389.041 921.408 389.041 915.942C389.041 910.476 384.902 906.046 379.797 906.046C374.692 906.046 370.553 910.476 370.553 915.942C370.553 921.408 374.692 925.839 379.797 925.839Z" fill="#F5E0C1"/>
<path d="M363.163 619.59C363.451 619.122 363.865 618.744 364.405 618.456C364.945 618.168 365.563 618.024 366.259 618.024C367.087 618.024 367.837 618.234 368.509 618.654C369.181 619.074 369.709 619.674 370.093 620.454C370.489 621.234 370.687 622.14 370.687 623.172C370.687 624.204 370.489 625.116 370.093 625.908C369.709 626.688 369.181 627.294 368.509 627.726C367.837 628.146 367.087 628.356 366.259 628.356C365.551 628.356 364.933 628.218 364.405 627.942C363.877 627.654 363.463 627.276 363.163 626.808V628.212H360.085V614.892H363.163V619.59ZM367.555 623.172C367.555 622.404 367.339 621.804 366.907 621.372C366.487 620.928 365.965 620.706 365.341 620.706C364.729 620.706 364.207 620.928 363.775 621.372C363.355 621.816 363.145 622.422 363.145 623.19C363.145 623.958 363.355 624.564 363.775 625.008C364.207 625.452 364.729 625.674 365.341 625.674C365.953 625.674 366.475 625.452 366.907 625.008C367.339 624.552 367.555 623.94 367.555 623.172ZM375.379 619.842C375.739 619.29 376.189 618.858 376.729 618.546C377.269 618.222 377.869 618.06 378.529 618.06V621.318H377.683C376.915 621.318 376.339 621.486 375.955 621.822C375.571 622.146 375.379 622.722 375.379 623.55V628.212H372.301V618.168H375.379V619.842ZM381.549 617.124C381.009 617.124 380.565 616.968 380.217 616.656C379.881 616.332 379.713 615.936 379.713 615.468C379.713 614.988 379.881 614.592 380.217 614.28C380.565 613.956 381.009 613.794 381.549 613.794C382.077 613.794 382.509 613.956 382.845 614.28C383.193 614.592 383.367 614.988 383.367 615.468C383.367 615.936 383.193 616.332 382.845 616.656C382.509 616.968 382.077 617.124 381.549 617.124ZM383.079 618.168V628.212H380.001V618.168H383.079ZM391.429 618.06C392.605 618.06 393.541 618.444 394.237 619.212C394.945 619.968 395.299 621.012 395.299 622.344V628.212H392.239V622.758C392.239 622.086 392.065 621.564 391.717 621.192C391.369 620.82 390.901 620.634 390.313 620.634C389.725 620.634 389.257 620.82 388.909 621.192C388.561 621.564 388.387 622.086 388.387 622.758V628.212H385.309V618.168H388.387V619.5C388.699 619.056 389.119 618.708 389.647 618.456C390.175 618.192 390.769 618.06 391.429 618.06ZM396.826 623.19C396.826 622.146 397.036 621.234 397.456 620.454C397.888 619.674 398.482 619.074 399.238 618.654C400.006 618.234 400.882 618.024 401.866 618.024C403.126 618.024 404.176 618.354 405.016 619.014C405.868 619.674 406.426 620.604 406.69 621.804H403.414C403.138 621.036 402.604 620.652 401.812 620.652C401.248 620.652 400.798 620.874 400.462 621.318C400.126 621.75 399.958 622.374 399.958 623.19C399.958 624.006 400.126 624.636 400.462 625.08C400.798 625.512 401.248 625.728 401.812 625.728C402.604 625.728 403.138 625.344 403.414 624.576H406.69C406.426 625.752 405.868 626.676 405.016 627.348C404.164 628.02 403.114 628.356 401.866 628.356C400.882 628.356 400.006 628.146 399.238 627.726C398.482 627.306 397.888 626.706 397.456 625.926C397.036 625.146 396.826 624.234 396.826 623.19ZM412.909 628.356C411.925 628.356 411.037 628.146 410.245 627.726C409.465 627.306 408.847 626.706 408.391 625.926C407.947 625.146 407.725 624.234 407.725 623.19C407.725 622.158 407.953 621.252 408.409 620.472C408.865 619.68 409.489 619.074 410.281 618.654C411.073 618.234 411.961 618.024 412.945 618.024C413.929 618.024 414.817 618.234 415.609 618.654C416.401 619.074 417.025 619.68 417.481 620.472C417.937 621.252 418.165 622.158 418.165 623.19C418.165 624.222 417.931 625.134 417.463 625.926C417.007 626.706 416.377 627.306 415.573 627.726C414.781 628.146 413.893 628.356 412.909 628.356ZM412.909 625.692C413.497 625.692 413.995 625.476 414.403 625.044C414.823 624.612 415.033 623.994 415.033 623.19C415.033 622.386 414.829 621.768 414.421 621.336C414.025 620.904 413.533 620.688 412.945 620.688C412.345 620.688 411.847 620.904 411.451 621.336C411.055 621.756 410.857 622.374 410.857 623.19C410.857 623.994 411.049 624.612 411.433 625.044C411.829 625.476 412.321 625.692 412.909 625.692ZM423.884 628.356C423.008 628.356 422.228 628.206 421.544 627.906C420.86 627.606 420.32 627.198 419.924 626.682C419.528 626.154 419.306 625.566 419.258 624.918H422.3C422.336 625.266 422.498 625.548 422.786 625.764C423.074 625.98 423.428 626.088 423.848 626.088C424.232 626.088 424.526 626.016 424.73 625.872C424.946 625.716 425.054 625.518 425.054 625.278C425.054 624.99 424.904 624.78 424.604 624.648C424.304 624.504 423.818 624.348 423.146 624.18C422.426 624.012 421.826 623.838 421.346 623.658C420.866 623.466 420.452 623.172 420.104 622.776C419.756 622.368 419.582 621.822 419.582 621.138C419.582 620.562 419.738 620.04 420.05 619.572C420.374 619.092 420.842 618.714 421.454 618.438C422.078 618.162 422.816 618.024 423.668 618.024C424.928 618.024 425.918 618.336 426.638 618.96C427.37 619.584 427.79 620.412 427.898 621.444H425.054C425.006 621.096 424.85 620.82 424.586 620.616C424.334 620.412 423.998 620.31 423.578 620.31C423.218 620.31 422.942 620.382 422.75 620.526C422.558 620.658 422.462 620.844 422.462 621.084C422.462 621.372 422.612 621.588 422.912 621.732C423.224 621.876 423.704 622.02 424.352 622.164C425.096 622.356 425.702 622.548 426.17 622.74C426.638 622.92 427.046 623.22 427.394 623.64C427.754 624.048 427.94 624.6 427.952 625.296C427.952 625.884 427.784 626.412 427.448 626.88C427.124 627.336 426.65 627.696 426.026 627.96C425.414 628.224 424.7 628.356 423.884 628.356ZM374.73 650.19C374.73 649.146 374.94 648.234 375.36 647.454C375.792 646.674 376.386 646.074 377.142 645.654C377.91 645.234 378.786 645.024 379.77 645.024C381.03 645.024 382.08 645.354 382.92 646.014C383.772 646.674 384.33 647.604 384.594 648.804H381.318C381.042 648.036 380.508 647.652 379.716 647.652C379.152 647.652 378.702 647.874 378.366 648.318C378.03 648.75 377.862 649.374 377.862 650.19C377.862 651.006 378.03 651.636 378.366 652.08C378.702 652.512 379.152 652.728 379.716 652.728C380.508 652.728 381.042 652.344 381.318 651.576H384.594C384.33 652.752 383.772 653.676 382.92 654.348C382.068 655.02 381.018 655.356 379.77 655.356C378.786 655.356 377.91 655.146 377.142 654.726C376.386 654.306 375.792 653.706 375.36 652.926C374.94 652.146 374.73 651.234 374.73 650.19ZM390.813 655.356C389.829 655.356 388.941 655.146 388.149 654.726C387.369 654.306 386.751 653.706 386.295 652.926C385.851 652.146 385.629 651.234 385.629 650.19C385.629 649.158 385.857 648.252 386.313 647.472C386.769 646.68 387.393 646.074 388.185 645.654C388.977 645.234 389.865 645.024 390.849 645.024C391.833 645.024 392.721 645.234 393.513 645.654C394.305 646.074 394.929 646.68 395.385 647.472C395.841 648.252 396.069 649.158 396.069 650.19C396.069 651.222 395.835 652.134 395.367 652.926C394.911 653.706 394.281 654.306 393.477 654.726C392.685 655.146 391.797 655.356 390.813 655.356ZM390.813 652.692C391.401 652.692 391.899 652.476 392.307 652.044C392.727 651.612 392.937 650.994 392.937 650.19C392.937 649.386 392.733 648.768 392.325 648.336C391.929 647.904 391.437 647.688 390.849 647.688C390.249 647.688 389.751 647.904 389.355 648.336C388.959 648.756 388.761 649.374 388.761 650.19C388.761 650.994 388.953 651.612 389.337 652.044C389.733 652.476 390.225 652.692 390.813 652.692ZM400.78 641.892V655.212H397.702V641.892H400.78ZM402.398 650.172C402.398 649.14 402.59 648.234 402.974 647.454C403.37 646.674 403.904 646.074 404.576 645.654C405.248 645.234 405.998 645.024 406.826 645.024C407.534 645.024 408.152 645.168 408.68 645.456C409.22 645.744 409.634 646.122 409.922 646.59V645.168H413V655.212H409.922V653.79C409.622 654.258 409.202 654.636 408.662 654.924C408.134 655.212 407.516 655.356 406.808 655.356C405.992 655.356 405.248 655.146 404.576 654.726C403.904 654.294 403.37 653.688 402.974 652.908C402.59 652.116 402.398 651.204 402.398 650.172ZM409.922 650.19C409.922 649.422 409.706 648.816 409.274 648.372C408.854 647.928 408.338 647.706 407.726 647.706C407.114 647.706 406.592 647.928 406.16 648.372C405.74 648.804 405.53 649.404 405.53 650.172C405.53 650.94 405.74 651.552 406.16 652.008C406.592 652.452 407.114 652.674 407.726 652.674C408.338 652.674 408.854 652.452 409.274 652.008C409.706 651.564 409.922 650.958 409.922 650.19ZM418.305 646.842C418.665 646.29 419.115 645.858 419.655 645.546C420.195 645.222 420.795 645.06 421.455 645.06V648.318H420.609C419.841 648.318 419.265 648.486 418.881 648.822C418.497 649.146 418.305 649.722 418.305 650.55V655.212H415.227V645.168H418.305V646.842ZM432.394 650.028C432.394 650.316 432.376 650.616 432.34 650.928H425.374C425.422 651.552 425.62 652.032 425.968 652.368C426.328 652.692 426.766 652.854 427.282 652.854C428.05 652.854 428.584 652.53 428.884 651.882H432.16C431.992 652.542 431.686 653.136 431.242 653.664C430.81 654.192 430.264 654.606 429.604 654.906C428.944 655.206 428.206 655.356 427.39 655.356C426.406 655.356 425.53 655.146 424.762 654.726C423.994 654.306 423.394 653.706 422.962 652.926C422.53 652.146 422.314 651.234 422.314 650.19C422.314 649.146 422.524 648.234 422.944 647.454C423.376 646.674 423.976 646.074 424.744 645.654C425.512 645.234 426.394 645.024 427.39 645.024C428.362 645.024 429.226 645.228 429.982 645.636C430.738 646.044 431.326 646.626 431.746 647.382C432.178 648.138 432.394 649.02 432.394 650.028ZM429.244 649.218C429.244 648.69 429.064 648.27 428.704 647.958C428.344 647.646 427.894 647.49 427.354 647.49C426.838 647.49 426.4 647.64 426.04 647.94C425.692 648.24 425.476 648.666 425.392 649.218H429.244ZM438.104 655.356C437.228 655.356 436.448 655.206 435.764 654.906C435.08 654.606 434.54 654.198 434.144 653.682C433.748 653.154 433.526 652.566 433.478 651.918H436.52C436.556 652.266 436.718 652.548 437.006 652.764C437.294 652.98 437.648 653.088 438.068 653.088C438.452 653.088 438.746 653.016 438.95 652.872C439.166 652.716 439.274 652.518 439.274 652.278C439.274 651.99 439.124 651.78 438.824 651.648C438.524 651.504 438.038 651.348 437.366 651.18C436.646 651.012 436.046 650.838 435.566 650.658C435.086 650.466 434.672 650.172 434.324 649.776C433.976 649.368 433.802 648.822 433.802 648.138C433.802 647.562 433.958 647.04 434.27 646.572C434.594 646.092 435.062 645.714 435.674 645.438C436.298 645.162 437.036 645.024 437.888 645.024C439.148 645.024 440.138 645.336 440.858 645.96C441.59 646.584 442.01 647.412 442.118 648.444H439.274C439.226 648.096 439.07 647.82 438.806 647.616C438.554 647.412 438.218 647.31 437.798 647.31C437.438 647.31 437.162 647.382 436.97 647.526C436.778 647.658 436.682 647.844 436.682 648.084C436.682 648.372 436.832 648.588 437.132 648.732C437.444 648.876 437.924 649.02 438.572 649.164C439.316 649.356 439.922 649.548 440.39 649.74C440.858 649.92 441.266 650.22 441.614 650.64C441.974 651.048 442.16 651.6 442.172 652.296C442.172 652.884 442.004 653.412 441.668 653.88C441.344 654.336 440.87 654.696 440.246 654.96C439.634 655.224 438.92 655.356 438.104 655.356ZM393.678 673.59C393.978 673.122 394.392 672.744 394.92 672.456C395.448 672.168 396.066 672.024 396.774 672.024C397.602 672.024 398.352 672.234 399.024 672.654C399.696 673.074 400.224 673.674 400.608 674.454C401.004 675.234 401.202 676.14 401.202 677.172C401.202 678.204 401.004 679.116 400.608 679.908C400.224 680.688 399.696 681.294 399.024 681.726C398.352 682.146 397.602 682.356 396.774 682.356C396.078 682.356 395.46 682.212 394.92 681.924C394.392 681.636 393.978 681.264 393.678 680.808V687H390.6V672.168H393.678V673.59ZM398.07 677.172C398.07 676.404 397.854 675.804 397.422 675.372C397.002 674.928 396.48 674.706 395.856 674.706C395.244 674.706 394.722 674.928 394.29 675.372C393.87 675.816 393.66 676.422 393.66 677.19C393.66 677.958 393.87 678.564 394.29 679.008C394.722 679.452 395.244 679.674 395.856 679.674C396.468 679.674 396.99 679.452 397.422 679.008C397.854 678.552 398.07 677.94 398.07 677.172ZM405.895 673.842C406.255 673.29 406.705 672.858 407.245 672.546C407.785 672.222 408.385 672.06 409.045 672.06V675.318H408.199C407.431 675.318 406.855 675.486 406.471 675.822C406.087 676.146 405.895 676.722 405.895 677.55V682.212H402.817V672.168H405.895V673.842ZM419.984 677.028C419.984 677.316 419.966 677.616 419.93 677.928H412.964C413.012 678.552 413.21 679.032 413.558 679.368C413.918 679.692 414.356 679.854 414.872 679.854C415.64 679.854 416.174 679.53 416.474 678.882H419.75C419.582 679.542 419.276 680.136 418.832 680.664C418.4 681.192 417.854 681.606 417.194 681.906C416.534 682.206 415.796 682.356 414.98 682.356C413.996 682.356 413.12 682.146 412.352 681.726C411.584 681.306 410.984 680.706 410.552 679.926C410.12 679.146 409.904 678.234 409.904 677.19C409.904 676.146 410.114 675.234 410.534 674.454C410.966 673.674 411.566 673.074 412.334 672.654C413.102 672.234 413.984 672.024 414.98 672.024C415.952 672.024 416.816 672.228 417.572 672.636C418.328 673.044 418.916 673.626 419.336 674.382C419.768 675.138 419.984 676.02 419.984 677.028ZM416.834 676.218C416.834 675.69 416.654 675.27 416.294 674.958C415.934 674.646 415.484 674.49 414.944 674.49C414.428 674.49 413.99 674.64 413.63 674.94C413.282 675.24 413.066 675.666 412.982 676.218H416.834ZM425.694 682.356C424.818 682.356 424.038 682.206 423.354 681.906C422.67 681.606 422.13 681.198 421.734 680.682C421.338 680.154 421.116 679.566 421.068 678.918H424.11C424.146 679.266 424.308 679.548 424.596 679.764C424.884 679.98 425.238 680.088 425.658 680.088C426.042 680.088 426.336 680.016 426.54 679.872C426.756 679.716 426.864 679.518 426.864 679.278C426.864 678.99 426.714 678.78 426.414 678.648C426.114 678.504 425.628 678.348 424.956 678.18C424.236 678.012 423.636 677.838 423.156 677.658C422.676 677.466 422.262 677.172 421.914 676.776C421.566 676.368 421.392 675.822 421.392 675.138C421.392 674.562 421.548 674.04 421.86 673.572C422.184 673.092 422.652 672.714 423.264 672.438C423.888 672.162 424.626 672.024 425.478 672.024C426.738 672.024 427.728 672.336 428.448 672.96C429.18 673.584 429.6 674.412 429.708 675.444H426.864C426.816 675.096 426.66 674.82 426.396 674.616C426.144 674.412 425.808 674.31 425.388 674.31C425.028 674.31 424.752 674.382 424.56 674.526C424.368 674.658 424.272 674.844 424.272 675.084C424.272 675.372 424.422 675.588 424.722 675.732C425.034 675.876 425.514 676.02 426.162 676.164C426.906 676.356 427.512 676.548 427.98 676.74C428.448 676.92 428.856 677.22 429.204 677.64C429.564 678.048 429.75 678.6 429.762 679.296C429.762 679.884 429.594 680.412 429.258 680.88C428.934 681.336 428.46 681.696 427.836 681.96C427.224 682.224 426.51 682.356 425.694 682.356ZM433.193 671.124C432.653 671.124 432.209 670.968 431.861 670.656C431.525 670.332 431.357 669.936 431.357 669.468C431.357 668.988 431.525 668.592 431.861 668.28C432.209 667.956 432.653 667.794 433.193 667.794C433.721 667.794 434.153 667.956 434.489 668.28C434.837 668.592 435.011 668.988 435.011 669.468C435.011 669.936 434.837 670.332 434.489 670.656C434.153 670.968 433.721 671.124 433.193 671.124ZM434.723 672.168V682.212H431.645V672.168H434.723ZM440.032 668.892V682.212H436.954V668.892H440.032ZM448.436 672.06C449.588 672.06 450.512 672.444 451.208 673.212C451.904 673.968 452.252 675.012 452.252 676.344V682.212H449.192V676.758C449.192 676.086 449.018 675.564 448.67 675.192C448.322 674.82 447.854 674.634 447.266 674.634C446.678 674.634 446.21 674.82 445.862 675.192C445.514 675.564 445.34 676.086 445.34 676.758V682.212H442.262V668.892H445.34V673.518C445.652 673.074 446.078 672.72 446.618 672.456C447.158 672.192 447.764 672.06 448.436 672.06ZM453.779 677.172C453.779 676.14 453.971 675.234 454.355 674.454C454.751 673.674 455.285 673.074 455.957 672.654C456.629 672.234 457.379 672.024 458.207 672.024C458.915 672.024 459.533 672.168 460.061 672.456C460.601 672.744 461.015 673.122 461.303 673.59V672.168H464.381V682.212H461.303V680.79C461.003 681.258 460.583 681.636 460.043 681.924C459.515 682.212 458.897 682.356 458.189 682.356C457.373 682.356 456.629 682.146 455.957 681.726C455.285 681.294 454.751 680.688 454.355 679.908C453.971 679.116 453.779 678.204 453.779 677.172ZM461.303 677.19C461.303 676.422 461.087 675.816 460.655 675.372C460.235 674.928 459.719 674.706 459.107 674.706C458.495 674.706 457.973 674.928 457.541 675.372C457.121 675.804 456.911 676.404 456.911 677.172C456.911 677.94 457.121 678.552 457.541 679.008C457.973 679.452 458.495 679.674 459.107 679.674C459.719 679.674 460.235 679.452 460.655 679.008C461.087 678.564 461.303 677.958 461.303 677.19ZM470.694 682.356C469.818 682.356 469.038 682.206 468.354 681.906C467.67 681.606 467.13 681.198 466.734 680.682C466.338 680.154 466.116 679.566 466.068 678.918H469.11C469.146 679.266 469.308 679.548 469.596 679.764C469.884 679.98 470.238 680.088 470.658 680.088C471.042 680.088 471.336 680.016 471.54 679.872C471.756 679.716 471.864 679.518 471.864 679.278C471.864 678.99 471.714 678.78 471.414 678.648C471.114 678.504 470.628 678.348 469.956 678.18C469.236 678.012 468.636 677.838 468.156 677.658C467.676 677.466 467.262 677.172 466.914 676.776C466.566 676.368 466.392 675.822 466.392 675.138C466.392 674.562 466.548 674.04 466.86 673.572C467.184 673.092 467.652 672.714 468.264 672.438C468.888 672.162 469.626 672.024 470.478 672.024C471.738 672.024 472.728 672.336 473.448 672.96C474.18 673.584 474.6 674.412 474.708 675.444H471.864C471.816 675.096 471.66 674.82 471.396 674.616C471.144 674.412 470.808 674.31 470.388 674.31C470.028 674.31 469.752 674.382 469.56 674.526C469.368 674.658 469.272 674.844 469.272 675.084C469.272 675.372 469.422 675.588 469.722 675.732C470.034 675.876 470.514 676.02 471.162 676.164C471.906 676.356 472.512 676.548 472.98 676.74C473.448 676.92 473.856 677.22 474.204 677.64C474.564 678.048 474.75 678.6 474.762 679.296C474.762 679.884 474.594 680.412 474.258 680.88C473.934 681.336 473.46 681.696 472.836 681.96C472.224 682.224 471.51 682.356 470.694 682.356Z" fill="black"/>
<path d="M525.158 595.089L531.957 619.186L553.959 619.186L536.159 634.079L542.958 658.177L525.158 643.284L507.358 658.177L514.157 634.079L496.357 619.186L518.359 619.186L525.158 595.089Z" fill="#C4C4C4"/>
</g>
<defs>
<filter id="filter0_d" x="439.234" y="285.974" width="62.5327" height="85.027" filterUnits="userSpaceOnUse" color-interpolation-filters="sRGB">
<feFlood flood-opacity="0" result="BackgroundImageFix"/>
<feColorMatrix in="SourceAlpha" type="matrix" values="0 0 0 0 0 0 0 0 0 0 0 0 0 0 0 0 0 0 127 0"/>
<feOffset dy="4"/>
<feGaussianBlur stdDeviation="2"/>
<feColorMatrix type="matrix" values="0 0 0 0 0 0 0 0 0 0 0 0 0 0 0 0 0 0 0.25 0"/>
<feBlend mode="normal" in2="BackgroundImageFix" result="effect1_dropShadow"/>
<feBlend mode="normal" in="SourceGraphic" in2="effect1_dropShadow" result="shape"/>
</filter>
<clipPath id="clip0">
<rect width="941" height="1021" fill="white"/>
</clipPath>
</defs>
</svg>
